<svg width="160" height="160" viewBox="0 0 160 160" fill="none" xmlns="http://www.w3.org/2000/svg">
<path d="M110.063 104.567C140.607 83.0946 141.661 40.9073 114.709 24.8032C87.7583 8.69902 52.6826 23.0191 46.9173 51.5633C42.4254 73.8024 50.7704 83.0946 56.1606 89.9963C60.4728 95.5177 75.4613 106.867 93.3014 107.759" stroke="black" stroke-width="7" stroke-linecap="round"/>
<path d="M46.9173 74.7555C29.0773 74.7554 31.277 89.526 34.8589 94.0961C25.9949 94.9679 23.1467 102.408 25.4426 107.552C18.4385 109.136 17.0468 119.449 24.0401 125.142C35.0526 134.107 44.2238 139.267 51.8019 138.969C59.3799 138.671 58.37 132.953 59.0821 131.093C64.8001 130.083 68.7963 125.215 69.0724 118.923C71.8934 118.923 80.0811 118.276 79.9214 107.552" stroke="black" stroke-width="4" stroke-linecap="round"/>
<path d="M120.061 96.1633C130.765 109.543 126.305 121.139 117.385 125.599C108.465 130.059 97.9543 133.594 91.5174 132.735C78.1374 130.951 78.1374 113.111 88.8414 107.759" stroke="black" stroke-width="4" stroke-linecap="round"/>
<path d="M67.4333 125.599C71.0014 128.275 76.3534 127.383 81.7054 126.491" stroke="black" stroke-width="2" stroke-linecap="round"/>
<path d="M95.9774 113.111C94.1934 113.111 89.7334 114.895 87.0574 119.355C85.786 121.139 86.1654 125.599 88.8414 127.383C91.5174 129.167 95.0854 129.167 99.5454 128.275C102.169 127.751 102.221 124.707 101.329 120.247C100.805 117.623 97.7614 113.111 95.9774 113.111Z" stroke="black"/>
<path d="M51.4949 40.9454C51.5377 48.301 51.3265 49.1676 53.9263 49.8014C56.5261 50.4353 59.5271 45.6582 61.0276 43.2697C62.5281 40.8811 69.2173 32.7871 82.5974 30.2632C97.5002 27.4521 107.113 32.5972 111.658 32.7871C116.202 32.9769 114.236 29.7432 112.925 27.5874C111.877 25.8627 107.556 21.9937 105.527 20.2748" stroke="black" stroke-width="2"/>
</svg>
