<svg width="782" height="126" viewBox="0 0 782 126" fill="none" xmlns="http://www.w3.org/2000/svg">
<path d="M0.50177 57.5438C0.50177 58.0516 0.87072 58.2682 1.32204 58.0109L18.8188 48.0476C19.0571 47.8935 19.2555 47.6864 19.3979 47.443C19.5404 47.1996 19.623 46.9266 19.6391 46.646V26.7192C19.6391 26.2114 19.2702 25.9947 18.8188 26.252L1.32376 36.2154C1.08529 36.3693 0.88681 36.5764 0.74433 36.8198C0.60185 37.0633 0.519353 37.3363 0.503488 37.617L0.50177 57.5438Z" fill="#6941A0"/>
<path d="M19.6391 99.2729C19.6391 99.7808 19.2701 99.9974 18.8188 99.7401L1.32203 89.7768C1.08375 89.6226 0.885418 89.4156 0.742962 89.1722C0.600506 88.9288 0.517897 88.6558 0.501764 88.3752V68.4484C0.501764 67.9406 0.870714 67.7239 1.32203 67.9812L18.8171 77.9446C19.0556 78.0985 19.2541 78.3055 19.3965 78.549C19.539 78.7924 19.6215 79.0655 19.6374 79.3462L19.6391 99.2729Z" fill="#6941A0"/>
<path d="M43.2485 85.8289C43.6998 86.0862 44.0687 85.8763 44.0687 85.3617V68.4565C44.0687 67.9487 43.6998 67.732 43.2485 67.9893L28.4012 76.4444C27.9499 76.7017 27.9499 77.1215 28.4012 77.3805L43.2485 85.8289Z" fill="#6941A0"/>
<path d="M25.7533 54.0781C25.3019 53.8208 24.933 54.0307 24.933 54.5453V71.4573C24.933 71.9651 25.3019 72.1818 25.7533 71.9245L40.6005 63.4608C41.0518 63.2036 41.0518 62.7838 40.6005 62.5248L25.7533 54.0781Z" fill="#6941A0"/>
<path d="M1.32375 12.3396C0.872429 12.0823 0.503479 12.2922 0.503479 12.8067V29.7188C0.503479 30.2266 0.872429 30.4432 1.32375 30.1859L16.171 21.7308C16.6223 21.4735 16.6223 21.0537 16.171 20.7947L1.32375 12.3396Z" fill="#6941A0"/>
<path d="M18.8188 71.9233C19.2701 72.1806 19.639 71.9707 19.639 71.4561V54.5441C19.639 54.0362 19.2701 53.8196 18.8188 54.0769L3.97173 62.532C3.52041 62.7893 3.52041 63.2091 3.97173 63.4681L18.8188 71.9233Z" fill="#6941A0"/>
<path d="M19.639 125.494C19.639 125.051 19.639 110.195 19.639 110.195C19.639 109.687 19.2701 109.471 18.8188 109.728L6.29179 116.861L3.97002 118.185C3.5187 118.441 3.5187 118.862 3.97002 119.119L11.3952 123.351C13.7628 124.702 16.3676 125.599 19.0727 125.995C19.2632 126.012 19.6407 126.012 19.639 125.494Z" fill="#6941A0"/>
<path d="M24.933 0.515709C24.933 0.959203 24.933 15.8146 24.933 15.8146C24.933 16.3224 25.3019 16.539 25.7533 16.2817L38.2804 9.14861L40.6022 7.82489C41.0535 7.56929 41.0535 7.14781 40.6022 6.89051L33.1769 2.6587C30.8096 1.305 28.204 0.405564 25.4976 0.00789176C25.3088 -0.0174991 24.9313 -0.0124209 24.933 0.515709Z" fill="#6941A0"/>
<path d="M63.6145 22.5363C63.9578 22.3467 63.9389 22.1198 63.8616 21.954C62.3221 20.0095 60.4575 18.3385 58.348 17.0129C58.2725 16.9655 58.1936 16.9215 58.1181 16.8741C57.8538 16.7133 57.5895 16.5559 57.3184 16.4052L53.1707 14.0354L47.5335 10.8192C47.2789 10.6931 46.998 10.6274 46.7132 10.6274C46.4284 10.6274 46.1475 10.6931 45.8929 10.8192L28.3996 20.7944C27.95 21.0517 27.95 21.4715 28.3996 21.7305L37.1514 26.7105L45.9032 31.6922C46.1578 31.8191 46.4391 31.8852 46.7244 31.8852C47.0096 31.8852 47.2909 31.8191 47.5455 31.6922L53.181 28.476C57.0284 26.2856 63.2576 22.736 63.6094 22.538L63.6145 22.5363Z" fill="#6941A0"/>
<path d="M66.2606 27.0595L52.8291 34.7089C52.3778 34.9662 52.3778 35.386 52.8291 35.645L65.3562 42.7781L67.678 44.1002C68.1294 44.3575 68.5 44.1459 68.5 43.633V35.1693C68.5024 32.4718 67.9871 29.7982 66.9813 27.2897C66.9127 27.1171 66.717 26.7971 66.2606 27.0595Z" fill="#6941A0"/>
<path d="M2.73258 112.855L16.1709 105.208C16.6223 104.95 16.6223 104.53 16.1709 104.271L3.6438 97.1383L1.322 95.8163C0.868959 95.559 0.500008 95.7706 0.500008 96.2835V104.747C0.497625 107.445 1.01293 110.118 2.01871 112.627C2.0822 112.796 2.27097 113.118 2.73258 112.855Z" fill="#6941A0"/>
<path d="M19.639 0.515709C19.639 0.959203 19.639 15.8146 19.639 15.8146C19.639 16.3224 19.2701 16.539 18.8188 16.2817L6.29179 9.14861L3.97002 7.82489C3.5187 7.56929 3.5187 7.14781 3.97002 6.89051L11.3952 2.6587C13.7625 1.305 16.3681 0.405564 19.0744 0.00789176C19.2632 -0.0174991 19.6407 -0.0124209 19.639 0.515709Z" fill="#6941A0"/>
<path d="M63.6144 75.639C63.2231 75.4189 50.1831 67.9896 50.1831 67.9896C49.7317 67.7323 49.3628 67.9439 49.3628 68.4568V85.3688C49.3628 85.8766 49.7317 86.0933 50.1831 85.836L57.6083 81.6042C59.9781 80.257 62.0683 78.48 63.7688 76.3669C63.8872 76.223 64.0708 75.898 63.6144 75.639Z" fill="#6941A0"/>
<path d="M93.06 41.008C93.06 40.752 93.1027 40.5387 93.188 40.368C93.2733 40.1973 93.4653 40.0693 93.764 39.984C94.1053 39.856 94.5747 39.792 95.172 39.792C95.812 39.7493 96.6867 39.728 97.796 39.728C98.82 39.728 99.78 39.7493 100.676 39.792C101.615 39.792 102.255 39.792 102.596 39.792H112.516C114.479 39.792 116.42 39.792 118.34 39.792C120.26 39.7493 122.201 39.728 124.164 39.728H125.572C125.913 39.728 126.212 39.7493 126.468 39.792C126.724 39.792 126.895 39.792 126.98 39.792C127.193 39.8347 127.343 40.1973 127.428 40.88C127.513 41.52 127.556 42.2667 127.556 43.12C127.599 43.9307 127.599 44.7413 127.556 45.552C127.556 46.3627 127.556 46.9387 127.556 47.28C127.556 47.536 127.556 47.8133 127.556 48.112C127.556 48.4107 127.535 48.688 127.492 48.944C127.449 49.2 127.364 49.4133 127.236 49.584C127.108 49.7547 126.916 49.84 126.66 49.84C126.02 49.84 125.615 49.5413 125.444 48.944C125.273 48.3467 125.103 47.664 124.932 46.896C124.804 46.0853 124.548 45.296 124.164 44.528C123.823 43.7173 123.183 43.1413 122.244 42.8C121.817 42.6293 121.22 42.5013 120.452 42.416C119.684 42.3307 118.873 42.2667 118.02 42.224C117.209 42.1387 116.399 42.096 115.588 42.096C114.82 42.0533 114.201 42.032 113.732 42.032H112.324C111.471 42.032 110.532 42.096 109.508 42.224C108.527 42.352 107.823 42.544 107.396 42.8C106.628 43.312 106.18 43.952 106.052 44.72C105.967 45.4453 105.924 46.2347 105.924 47.088C105.924 49.008 105.924 50.928 105.924 52.848C105.967 54.768 105.988 56.688 105.988 58.608C105.988 59.2907 106.073 59.8027 106.244 60.144C106.457 60.4427 106.713 60.656 107.012 60.784C107.353 60.8693 107.716 60.912 108.1 60.912C108.527 60.8693 108.975 60.848 109.444 60.848H111.748C112.473 60.848 113.241 60.848 114.052 60.848C114.863 60.8053 115.631 60.7413 116.356 60.656C117.124 60.528 117.785 60.3787 118.34 60.208C118.937 60.0373 119.385 59.8027 119.684 59.504C120.111 59.0773 120.409 58.5653 120.58 57.968C120.793 57.3707 120.964 56.816 121.092 56.304C121.22 55.792 121.391 55.3653 121.604 55.024C121.817 54.64 122.18 54.448 122.692 54.448C122.991 54.448 123.161 54.64 123.204 55.024C123.289 55.408 123.332 55.7067 123.332 55.92C123.332 56.8587 123.311 57.776 123.268 58.672C123.225 59.568 123.204 60.4853 123.204 61.424C123.204 62.3627 123.225 63.28 123.268 64.176C123.353 65.072 123.396 65.9893 123.396 66.928C123.396 67.184 123.396 67.4827 123.396 67.824C123.439 68.1227 123.417 68.4427 123.332 68.784C123.289 69.0827 123.183 69.3387 123.012 69.552C122.884 69.7653 122.671 69.872 122.372 69.872C121.945 69.872 121.647 69.5733 121.476 68.976C121.305 68.3787 121.113 67.7173 120.9 66.992C120.687 66.224 120.367 65.4773 119.94 64.752C119.513 64.0267 118.831 63.536 117.892 63.28C117.295 63.0667 116.399 62.9387 115.204 62.896C114.009 62.8107 112.921 62.768 111.94 62.768H110.212C109.913 62.768 109.529 62.768 109.06 62.768C108.591 62.7253 108.121 62.7467 107.652 62.832C107.225 62.8747 106.841 63.0027 106.5 63.216C106.201 63.4293 106.052 63.7493 106.052 64.176C106.052 66.096 106.031 67.9947 105.988 69.872C105.945 71.7493 105.924 73.648 105.924 75.568V76.912C105.924 77.3387 105.924 77.8293 105.924 78.384C105.924 78.896 105.945 79.408 105.988 79.92C106.031 80.3893 106.052 80.816 106.052 81.2C106.095 81.584 106.159 81.84 106.244 81.968C106.628 82.7787 107.225 83.312 108.036 83.568C108.889 83.824 109.743 83.9947 110.596 84.08C111.449 84.1653 112.196 84.2933 112.836 84.464C113.476 84.592 113.796 84.9547 113.796 85.552C113.796 85.936 113.583 86.192 113.156 86.32C112.772 86.4907 112.367 86.576 111.94 86.576H111.3C109.721 86.576 108.143 86.4907 106.564 86.32C104.985 86.192 103.407 86.128 101.828 86.128C100.591 86.128 99.3747 86.192 98.18 86.32C97.028 86.4907 95.8547 86.576 94.66 86.576C94.3187 86.576 93.9133 86.5333 93.444 86.448C92.9747 86.4053 92.74 86.1493 92.74 85.68C92.74 85.3387 92.932 85.0827 93.316 84.912C93.7 84.6987 94.148 84.5493 94.66 84.464C95.172 84.3787 95.684 84.3147 96.196 84.272C96.7507 84.1867 97.156 84.1013 97.412 84.016C98.3507 83.8453 98.9907 83.3333 99.332 82.48C99.46 82.224 99.5667 81.7547 99.652 81.072C99.7373 80.3893 99.8013 79.6213 99.844 78.768C99.8867 77.872 99.908 76.976 99.908 76.08C99.9507 75.1413 99.972 74.288 99.972 73.52V71.152C99.972 66.8853 99.9293 62.6827 99.844 58.544C99.8013 54.4053 99.78 50.2027 99.78 45.936C99.78 44.912 99.6093 44.144 99.268 43.632C98.9267 43.0773 98.5 42.6933 97.988 42.48C97.5187 42.224 96.9853 42.0747 96.388 42.032C95.8333 41.9893 95.3 41.968 94.788 41.968C94.3187 41.9253 93.9133 41.8613 93.572 41.776C93.2307 41.648 93.06 41.392 93.06 41.008ZM124.317 85.296C124.317 84.7413 124.488 84.3787 124.829 84.208C125.171 84.0373 125.576 83.9093 126.045 83.824C126.557 83.7387 127.069 83.6107 127.581 83.44C128.136 83.2693 128.605 82.8853 128.989 82.288C129.117 82.1173 129.309 81.7547 129.565 81.2C129.821 80.6027 130.077 79.984 130.333 79.344C130.632 78.704 130.888 78.0853 131.101 77.488C131.357 76.848 131.549 76.3787 131.677 76.08C132.573 73.776 133.469 71.5147 134.365 69.296C135.304 67.0347 136.243 64.752 137.181 62.448C138.76 58.5653 140.339 54.704 141.917 50.864C143.496 47.024 145.075 43.1627 146.653 39.28C146.739 39.024 146.824 38.832 146.909 38.704C147.037 38.5333 147.272 38.448 147.613 38.448C147.912 38.448 148.147 38.576 148.317 38.832C148.488 39.0453 148.616 39.2587 148.701 39.472C149.683 41.904 150.685 44.3787 151.709 46.896C152.733 49.4133 153.736 51.888 154.717 54.32C156.509 58.9707 158.387 63.5787 160.349 68.144C162.312 72.7093 164.381 77.2533 166.557 81.776C166.941 82.5867 167.475 83.12 168.158 83.376C168.883 83.632 169.587 83.824 170.27 83.952C170.952 84.08 171.549 84.2293 172.062 84.4C172.573 84.528 172.829 84.8693 172.829 85.424C172.829 85.808 172.595 86.064 172.125 86.192C171.699 86.3627 171.272 86.448 170.846 86.448H170.141C169.117 86.448 168.093 86.384 167.069 86.256C166.046 86.128 165.022 86.064 163.998 86.064C162.504 86.064 161.011 86.128 159.517 86.256C158.067 86.384 156.595 86.448 155.101 86.448C154.717 86.448 154.376 86.32 154.077 86.064C153.779 85.808 153.629 85.488 153.629 85.104C153.629 84.6347 153.928 84.3573 154.525 84.272C155.123 84.1867 155.784 84.1227 156.509 84.08C157.277 84.0373 157.96 83.9307 158.557 83.76C159.155 83.5893 159.453 83.1413 159.453 82.416C159.453 82.288 159.432 82.16 159.389 82.032C159.347 81.8613 159.304 81.712 159.262 81.584C159.134 81.1573 158.899 80.5173 158.557 79.664C158.216 78.768 157.811 77.7227 157.341 76.528C156.872 75.3333 156.339 74.0107 155.742 72.56C155.144 71.1093 154.525 69.616 153.885 68.08C153.672 67.6533 153.48 67.2693 153.309 66.928C153.181 66.5867 153.075 66.3733 152.99 66.288C152.648 65.9467 152.136 65.7547 151.453 65.712C150.771 65.6267 150.067 65.584 149.341 65.584H148.125C147.613 65.584 146.931 65.584 146.077 65.584C145.267 65.5413 144.413 65.52 143.517 65.52C142.664 65.52 141.811 65.5413 140.957 65.584C140.147 65.6267 139.464 65.712 138.909 65.84C138.141 67.632 137.416 69.424 136.733 71.216C136.093 72.9653 135.539 74.5653 135.069 76.016C134.6 77.4667 134.216 78.6827 133.917 79.664C133.661 80.6453 133.533 81.2427 133.533 81.456C133.533 82.352 133.875 82.928 134.557 83.184C135.24 83.44 135.987 83.6107 136.797 83.696C137.651 83.7813 138.419 83.9093 139.101 84.08C139.784 84.208 140.125 84.592 140.125 85.232C140.125 85.5733 139.997 85.8507 139.741 86.064C139.485 86.32 139.187 86.448 138.845 86.448C137.48 86.448 136.093 86.3627 134.685 86.192C133.277 86.064 131.891 86 130.525 86C129.544 86 128.648 86.0427 127.837 86.128C127.069 86.256 126.195 86.32 125.213 86.32C124.915 86.32 124.68 86.2133 124.509 86C124.381 85.7867 124.317 85.552 124.317 85.296ZM146.525 47.6C145.928 48.9653 145.416 50.16 144.989 51.184C144.563 52.1653 144.136 53.1893 143.709 54.256C143.283 55.3227 142.792 56.5173 142.237 57.84C141.683 59.1627 140.979 60.848 140.125 62.896H141.853C142.579 62.896 143.667 62.896 145.117 62.896C146.611 62.8533 148.701 62.832 151.389 62.832C151.389 62.7893 151.453 62.768 151.581 62.768C151.752 62.7253 151.88 62.6827 151.965 62.64C151.411 61.1467 150.835 59.568 150.237 57.904C149.64 56.1973 149.085 54.6187 148.573 53.168C148.061 51.6747 147.613 50.416 147.229 49.392C146.888 48.368 146.653 47.7707 146.525 47.6ZM187.57 40.048C188.551 40.048 189.511 40.0053 190.45 39.92C191.389 39.792 192.349 39.728 193.33 39.728H193.906C194.247 39.728 194.61 39.792 194.994 39.92C195.378 40.048 195.57 40.24 195.57 40.496C195.485 40.6667 195.421 40.88 195.378 41.136C195.335 41.3493 195.271 41.52 195.186 41.648C194.973 41.9893 194.525 42.1387 193.842 42.096C193.202 42.0107 192.519 42.0107 191.794 42.096C191.111 42.1813 190.493 42.48 189.938 42.992C189.426 43.504 189.17 44.528 189.17 46.064V49.456C189.17 50.48 189.17 51.4827 189.17 52.464C189.213 53.4027 189.234 54.384 189.234 55.408V58.8C189.234 58.8853 189.191 59.0773 189.106 59.376C189.063 59.632 189.085 59.7813 189.17 59.824C189.639 59.824 190.109 59.696 190.578 59.44C191.047 59.184 191.495 58.8853 191.922 58.544C192.349 58.2027 192.733 57.8613 193.074 57.52C193.415 57.1787 193.693 56.9013 193.906 56.688C194.205 56.3893 194.738 55.8773 195.506 55.152C196.317 54.4267 197.213 53.616 198.194 52.72C199.175 51.7813 200.199 50.8 201.266 49.776C202.375 48.752 203.378 47.792 204.274 46.896C205.17 45.9573 205.895 45.1467 206.45 44.464C207.047 43.7813 207.346 43.312 207.346 43.056C207.346 42.6293 207.047 42.3733 206.45 42.288C205.853 42.2027 205.191 42.16 204.466 42.16C203.783 42.1173 203.143 42.0533 202.546 41.968C201.949 41.8827 201.65 41.6267 201.65 41.2V40.688C201.863 40.1333 202.29 39.856 202.93 39.856C203.57 39.8133 204.189 39.792 204.786 39.792C205.938 39.792 207.09 39.8347 208.242 39.92C209.437 39.9627 210.631 39.984 211.826 39.984C212.893 39.984 213.938 39.9627 214.962 39.92C216.029 39.8347 217.095 39.792 218.162 39.792C218.503 39.792 218.823 39.8773 219.122 40.048C219.421 40.2187 219.57 40.496 219.57 40.88C219.57 41.3493 219.335 41.6693 218.866 41.84C218.397 42.0107 217.821 42.1387 217.138 42.224C216.455 42.3093 215.73 42.416 214.962 42.544C214.237 42.6293 213.597 42.8213 213.042 43.12C212.701 43.2907 212.039 43.76 211.058 44.528C210.119 45.296 209.031 46.2133 207.794 47.28C206.557 48.304 205.255 49.4347 203.89 50.672C202.525 51.8667 201.266 52.9973 200.114 54.064C198.962 55.1307 197.981 56.048 197.17 56.816C196.402 57.584 195.975 58.0747 195.89 58.288C195.975 58.5013 196.381 59.0347 197.106 59.888C197.874 60.7413 198.77 61.7653 199.794 62.96C200.861 64.112 202.013 65.3707 203.25 66.736C204.487 68.0587 205.661 69.3173 206.77 70.512C207.879 71.7067 208.861 72.7733 209.714 73.712C210.567 74.608 211.143 75.2053 211.442 75.504C212.167 76.3147 212.914 77.1893 213.682 78.128C214.45 79.024 215.239 79.8773 216.05 80.688C216.903 81.4987 217.778 82.224 218.674 82.864C219.613 83.4613 220.615 83.888 221.682 84.144C222.237 84.2293 222.77 84.3573 223.282 84.528C223.794 84.656 224.029 85.0613 223.986 85.744C223.943 86.0853 223.709 86.2773 223.282 86.32C222.898 86.4053 222.578 86.448 222.322 86.448C220.957 86.448 219.613 86.384 218.29 86.256C216.967 86.1707 215.623 86.128 214.258 86.128C212.637 86.128 210.994 86.1707 209.33 86.256C207.666 86.384 206.023 86.448 204.402 86.448C203.975 86.448 203.634 86.384 203.378 86.256C203.122 86.1707 202.994 85.872 202.994 85.36C202.994 84.9333 203.207 84.6133 203.634 84.4C204.103 84.1867 204.637 84.0373 205.234 83.952C205.831 83.8667 206.407 83.8453 206.962 83.888C207.517 83.888 207.901 83.888 208.114 83.888C208.455 83.888 208.775 83.824 209.074 83.696C209.415 83.568 209.415 83.248 209.074 82.736C209.031 82.6507 208.903 82.48 208.69 82.224C208.477 81.9253 208.242 81.6053 207.986 81.264C207.73 80.9227 207.474 80.6027 207.218 80.304C207.005 80.0053 206.855 79.792 206.77 79.664C206.301 79.1093 205.639 78.3413 204.786 77.36C203.975 76.3787 203.058 75.2907 202.034 74.096C201.01 72.9013 199.943 71.6853 198.834 70.448C197.725 69.2107 196.637 68.0587 195.57 66.992C194.546 65.8827 193.607 64.944 192.754 64.176C191.901 63.3653 191.218 62.832 190.706 62.576C190.237 62.5333 189.874 62.4693 189.618 62.384C189.405 62.2987 189.255 62.4267 189.17 62.768C189.127 62.9813 189.085 63.3653 189.042 63.92C189.042 64.432 189.042 64.9867 189.042 65.584V68.464C189.042 70.0427 189.021 71.6 188.978 73.136C188.978 74.672 188.978 76.2293 188.978 77.808C188.978 78.448 188.999 79.152 189.042 79.92C189.127 80.688 189.277 81.392 189.49 82.032C189.746 82.672 190.13 83.184 190.642 83.568C191.154 83.952 191.858 84.1013 192.754 84.016C192.925 84.144 193.181 84.208 193.522 84.208C193.906 84.1653 194.29 84.1653 194.674 84.208C195.058 84.208 195.378 84.272 195.634 84.4C195.933 84.4853 196.082 84.72 196.082 85.104C196.082 85.5733 195.89 85.8933 195.506 86.064C195.122 86.2773 194.717 86.384 194.29 86.384H193.458C192.562 86.384 191.666 86.32 190.77 86.192C189.917 86.1067 189.042 86.064 188.146 86.064C186.354 86.064 184.626 86.128 182.962 86.256C181.298 86.384 179.57 86.448 177.778 86.448C177.394 86.448 176.946 86.4053 176.434 86.32C175.965 86.2347 175.73 85.9573 175.73 85.488C175.73 84.976 175.943 84.6347 176.37 84.464C176.797 84.2507 177.287 84.1227 177.842 84.08C178.439 83.9947 179.037 83.952 179.634 83.952C180.231 83.9093 180.701 83.8027 181.042 83.632C181.426 83.4613 181.725 83.184 181.938 82.8C182.194 82.3733 182.386 81.9253 182.514 81.456C182.642 80.9867 182.727 80.5173 182.77 80.048C182.813 79.536 182.834 79.088 182.834 78.704C182.834 74.4373 182.855 70.2133 182.898 66.032C182.983 61.808 183.026 57.5627 183.026 53.296V45.488C183.026 44.8053 182.919 44.1227 182.706 43.44C182.535 42.7147 182.045 42.288 181.234 42.16C180.807 42.0747 180.317 42.0533 179.762 42.096C179.25 42.096 178.738 42.0747 178.226 42.032C177.757 41.9467 177.351 41.7973 177.01 41.584C176.711 41.3707 176.562 41.008 176.562 40.496C176.562 40.1547 176.754 39.9413 177.138 39.856C177.565 39.728 177.97 39.664 178.354 39.664H179.058C180.167 39.664 181.255 39.728 182.322 39.856C183.389 39.984 184.477 40.048 185.586 40.048H187.57ZM260.582 49.648C260.155 49.648 259.814 49.392 259.558 48.88C259.302 48.3253 259.046 47.6853 258.79 46.96C258.534 46.2347 258.235 45.5307 257.894 44.848C257.595 44.1227 257.147 43.5893 256.55 43.248C256.166 43.0347 255.611 42.864 254.886 42.736C254.16 42.5653 253.35 42.4373 252.454 42.352C251.558 42.2667 250.619 42.224 249.638 42.224C248.699 42.1813 247.803 42.16 246.95 42.16H244.134C243.152 42.16 242.406 42.3733 241.894 42.8C241.382 43.184 240.998 43.696 240.742 44.336C240.528 44.976 240.4 45.7013 240.358 46.512C240.315 47.28 240.294 48.0267 240.294 48.752C240.294 50.2027 240.294 51.6533 240.294 53.104C240.336 54.5547 240.358 56.0053 240.358 57.456V58.928C240.358 59.4827 240.4 59.9307 240.486 60.272C240.656 60.4853 240.912 60.6347 241.254 60.72C241.595 60.8053 241.958 60.8693 242.342 60.912C242.768 60.912 243.174 60.912 243.558 60.912C243.942 60.8693 244.262 60.848 244.518 60.848C245.67 60.848 246.843 60.848 248.038 60.848C249.232 60.8053 250.406 60.6987 251.558 60.528C252.838 60.3147 253.755 59.7813 254.31 58.928C254.864 58.0747 255.184 57.0293 255.27 55.792C255.398 55.536 255.526 55.3013 255.654 55.088C255.824 54.832 256.08 54.704 256.422 54.704C256.891 54.704 257.147 54.9173 257.19 55.344C257.232 55.7707 257.254 56.2187 257.254 56.688C257.254 57.584 257.232 58.48 257.19 59.376C257.147 60.272 257.126 61.168 257.126 62.064C257.126 62.96 257.147 63.856 257.19 64.752C257.232 65.6053 257.254 66.48 257.254 67.376C257.254 67.5893 257.254 67.8667 257.254 68.208C257.296 68.5067 257.296 68.8053 257.254 69.104C257.211 69.4027 257.104 69.6587 256.934 69.872C256.806 70.0427 256.592 70.128 256.294 70.128C255.995 70.128 255.76 69.936 255.59 69.552C255.419 69.168 255.27 68.7413 255.142 68.272C255.056 67.76 254.971 67.2693 254.886 66.8C254.8 66.288 254.694 65.9253 254.566 65.712C254.395 64.9013 253.947 64.304 253.222 63.92C252.539 63.4933 251.707 63.216 250.726 63.088C249.787 62.9173 248.784 62.8533 247.718 62.896C246.694 62.896 245.776 62.896 244.966 62.896C244.752 62.896 244.475 62.9173 244.134 62.96C243.792 62.96 243.43 62.9813 243.046 63.024C242.662 63.024 242.278 63.0453 241.894 63.088C241.552 63.1307 241.296 63.1733 241.126 63.216C240.87 63.2587 240.699 63.4507 240.614 63.792C240.528 64.1333 240.464 64.5173 240.422 64.944C240.379 65.3707 240.358 65.7973 240.358 66.224C240.4 66.6507 240.422 66.9493 240.422 67.12V77.232C240.422 77.7013 240.422 78.2347 240.422 78.832C240.464 79.3867 240.528 79.9627 240.614 80.56C240.742 81.1147 240.912 81.648 241.126 82.16C241.382 82.6293 241.744 82.992 242.214 83.248C242.555 83.4187 243.152 83.568 244.006 83.696C244.859 83.7813 245.755 83.8453 246.694 83.888C247.675 83.9307 248.614 83.9733 249.51 84.016C250.406 84.016 251.046 84.016 251.43 84.016H253.414C253.968 84.016 254.587 83.9947 255.27 83.952C255.952 83.9093 256.592 83.8667 257.19 83.824C257.83 83.7387 258.406 83.632 258.918 83.504C259.472 83.376 259.92 83.2053 260.262 82.992C260.859 82.608 261.414 82.0107 261.926 81.2C262.438 80.3893 262.907 79.5787 263.334 78.768C263.803 77.9573 264.23 77.2533 264.614 76.656C265.04 76.016 265.424 75.696 265.766 75.696C266.278 75.696 266.555 75.8667 266.598 76.208C266.683 76.5493 266.64 76.8907 266.47 77.232C266.47 77.2747 266.427 77.488 266.342 77.872C266.256 78.256 266.192 78.4907 266.15 78.576C266.107 78.704 266 79.152 265.83 79.92C265.659 80.6453 265.467 81.4347 265.254 82.288C265.083 83.0987 264.912 83.8453 264.742 84.528C264.614 85.2107 264.55 85.552 264.55 85.552C264.208 86.064 263.675 86.32 262.95 86.32H232.742C232.144 86.32 231.526 86.3413 230.886 86.384C230.288 86.4267 229.67 86.448 229.03 86.448C228.56 86.448 228.091 86.4267 227.622 86.384C227.152 86.3413 226.918 86 226.918 85.36C226.918 85.0187 227.174 84.7627 227.686 84.592C228.24 84.4213 228.88 84.2507 229.606 84.08C230.374 83.9093 231.12 83.696 231.846 83.44C232.571 83.1413 233.126 82.7147 233.51 82.16C233.851 81.648 234.086 80.816 234.214 79.664C234.342 78.512 234.406 77.2533 234.406 75.888C234.406 74.48 234.384 73.072 234.342 71.664C234.299 70.2133 234.278 68.9547 234.278 67.888C234.278 64.432 234.256 60.9973 234.214 57.584C234.171 54.1707 234.15 50.736 234.15 47.28V46.128C234.15 45.9147 234.15 45.7227 234.15 45.552C234.15 45.3813 234.128 45.1893 234.086 44.976C234 43.8667 233.595 43.1413 232.87 42.8C232.187 42.416 231.419 42.1813 230.566 42.096C229.755 41.968 229.008 41.8613 228.326 41.776C227.686 41.648 227.366 41.3067 227.366 40.752C227.366 40.368 227.536 40.112 227.878 39.984C228.262 39.8133 228.688 39.7067 229.158 39.664C229.67 39.5787 230.203 39.5573 230.758 39.6C231.312 39.6 231.782 39.6 232.166 39.6C233.616 39.6 235.067 39.6427 236.518 39.728C237.968 39.7707 239.44 39.792 240.934 39.792C243.878 39.792 246.758 39.7707 249.574 39.728C252.432 39.6427 255.334 39.6 258.278 39.6H258.982C259.451 39.6 259.92 39.6427 260.39 39.728C260.859 39.8133 261.136 40.0267 261.222 40.368C261.392 41.2213 261.478 42.0107 261.478 42.736C261.478 43.12 261.456 43.5893 261.414 44.144C261.414 44.656 261.414 45.296 261.414 46.064C261.414 46.9173 261.35 47.728 261.222 48.496C261.136 49.2213 260.923 49.6053 260.582 49.648ZM307.305 40.944C307.305 41.1573 307.177 41.3707 306.921 41.584C306.708 41.7547 306.174 41.8827 305.321 41.968C303.529 41.9253 302.313 42.288 301.673 43.056C301.033 43.824 300.713 45.104 300.713 46.896C300.713 47.3653 300.713 47.8347 300.713 48.304C300.756 48.7307 300.777 49.1787 300.777 49.648C300.777 54.5547 300.756 59.4187 300.713 64.24C300.713 69.0187 300.713 73.8613 300.713 78.768C300.713 81.1573 300.5 83.5893 300.073 86.064C299.689 88.5813 298.985 90.9067 297.961 93.04C296.98 95.216 295.614 97.0933 293.865 98.672C292.116 100.251 289.897 101.339 287.209 101.936C286.953 101.979 286.74 101.893 286.569 101.68C286.441 101.467 286.377 101.211 286.377 100.912C286.377 100.613 286.441 100.315 286.569 100.016C286.697 99.76 286.91 99.6107 287.209 99.568C288.404 99.44 289.406 98.928 290.217 98.032C291.028 97.136 291.689 96.0267 292.201 94.704C292.756 93.3813 293.161 91.9307 293.417 90.352C293.716 88.7733 293.929 87.216 294.057 85.68C294.185 84.144 294.27 82.736 294.313 81.456C294.356 80.176 294.398 79.1733 294.441 78.448C294.484 75.888 294.505 73.328 294.505 70.768C294.548 68.208 294.569 65.648 294.569 63.088V47.472C294.569 46.4907 294.505 45.488 294.377 44.464C294.292 43.4827 293.865 42.864 293.097 42.608C292.372 42.352 291.561 42.2027 290.665 42.16C289.812 42.1173 289.022 42.0533 288.297 41.968C287.572 41.84 287.209 41.4347 287.209 40.752C287.209 40.4107 287.337 40.1547 287.593 39.984C287.892 39.8133 288.19 39.728 288.489 39.728C290.452 39.728 292.393 39.792 294.313 39.92C296.276 40.048 298.238 40.112 300.201 40.112C301.14 40.112 302.078 40.0693 303.017 39.984C303.956 39.856 304.894 39.792 305.833 39.792C306.174 39.792 306.494 39.8773 306.793 40.048C307.134 40.2187 307.305 40.5173 307.305 40.944ZM307.755 85.296C307.755 84.7413 307.926 84.3787 308.267 84.208C308.608 84.0373 309.014 83.9093 309.483 83.824C309.995 83.7387 310.507 83.6107 311.019 83.44C311.574 83.2693 312.043 82.8853 312.427 82.288C312.555 82.1173 312.747 81.7547 313.003 81.2C313.259 80.6027 313.515 79.984 313.771 79.344C314.07 78.704 314.326 78.0853 314.539 77.488C314.795 76.848 314.987 76.3787 315.115 76.08C316.011 73.776 316.907 71.5147 317.803 69.296C318.742 67.0347 319.68 64.752 320.619 62.448C322.198 58.5653 323.776 54.704 325.355 50.864C326.934 47.024 328.512 43.1627 330.091 39.28C330.176 39.024 330.262 38.832 330.347 38.704C330.475 38.5333 330.71 38.448 331.051 38.448C331.35 38.448 331.584 38.576 331.755 38.832C331.926 39.0453 332.054 39.2587 332.139 39.472C333.12 41.904 334.123 44.3787 335.147 46.896C336.171 49.4133 337.174 51.888 338.155 54.32C339.947 58.9707 341.824 63.5787 343.787 68.144C345.75 72.7093 347.819 77.2533 349.995 81.776C350.379 82.5867 350.912 83.12 351.595 83.376C352.32 83.632 353.024 83.824 353.707 83.952C354.39 84.08 354.987 84.2293 355.499 84.4C356.011 84.528 356.267 84.8693 356.267 85.424C356.267 85.808 356.032 86.064 355.563 86.192C355.136 86.3627 354.71 86.448 354.283 86.448H353.579C352.555 86.448 351.531 86.384 350.507 86.256C349.483 86.128 348.459 86.064 347.435 86.064C345.942 86.064 344.448 86.128 342.955 86.256C341.504 86.384 340.032 86.448 338.539 86.448C338.155 86.448 337.814 86.32 337.515 86.064C337.216 85.808 337.067 85.488 337.067 85.104C337.067 84.6347 337.366 84.3573 337.963 84.272C338.56 84.1867 339.222 84.1227 339.947 84.08C340.715 84.0373 341.398 83.9307 341.995 83.76C342.592 83.5893 342.891 83.1413 342.891 82.416C342.891 82.288 342.87 82.16 342.827 82.032C342.784 81.8613 342.742 81.712 342.699 81.584C342.571 81.1573 342.336 80.5173 341.995 79.664C341.654 78.768 341.248 77.7227 340.779 76.528C340.31 75.3333 339.776 74.0107 339.179 72.56C338.582 71.1093 337.963 69.616 337.323 68.08C337.11 67.6533 336.918 67.2693 336.747 66.928C336.619 66.5867 336.512 66.3733 336.427 66.288C336.086 65.9467 335.574 65.7547 334.891 65.712C334.208 65.6267 333.504 65.584 332.779 65.584H331.563C331.051 65.584 330.368 65.584 329.515 65.584C328.704 65.5413 327.851 65.52 326.955 65.52C326.102 65.52 325.248 65.5413 324.395 65.584C323.584 65.6267 322.902 65.712 322.347 65.84C321.579 67.632 320.854 69.424 320.171 71.216C319.531 72.9653 318.976 74.5653 318.507 76.016C318.038 77.4667 317.654 78.6827 317.355 79.664C317.099 80.6453 316.971 81.2427 316.971 81.456C316.971 82.352 317.312 82.928 317.995 83.184C318.678 83.44 319.424 83.6107 320.235 83.696C321.088 83.7813 321.856 83.9093 322.539 84.08C323.222 84.208 323.563 84.592 323.563 85.232C323.563 85.5733 323.435 85.8507 323.179 86.064C322.923 86.32 322.624 86.448 322.283 86.448C320.918 86.448 319.531 86.3627 318.123 86.192C316.715 86.064 315.328 86 313.963 86C312.982 86 312.086 86.0427 311.275 86.128C310.507 86.256 309.632 86.32 308.651 86.32C308.352 86.32 308.118 86.2133 307.947 86C307.819 85.7867 307.755 85.552 307.755 85.296ZM329.963 47.6C329.366 48.9653 328.854 50.16 328.427 51.184C328 52.1653 327.574 53.1893 327.147 54.256C326.72 55.3227 326.23 56.5173 325.675 57.84C325.12 59.1627 324.416 60.848 323.563 62.896H325.291C326.016 62.896 327.104 62.896 328.555 62.896C330.048 62.8533 332.139 62.832 334.827 62.832C334.827 62.7893 334.891 62.768 335.019 62.768C335.19 62.7253 335.318 62.6827 335.403 62.64C334.848 61.1467 334.272 59.568 333.675 57.904C333.078 56.1973 332.523 54.6187 332.011 53.168C331.499 51.6747 331.051 50.416 330.667 49.392C330.326 48.368 330.091 47.7707 329.963 47.6ZM386.943 53.104C386.943 51.6533 386.709 50.2667 386.239 48.944C385.813 47.5787 385.13 46.384 384.191 45.36C383.295 44.336 382.165 43.504 380.799 42.864C379.434 42.224 377.855 41.8613 376.063 41.776C375.594 41.776 375.082 41.8187 374.527 41.904C373.973 41.9467 373.503 42.1387 373.119 42.48C372.735 42.864 372.458 43.4827 372.287 44.336C372.159 45.1467 372.095 45.936 372.095 46.704V47.984C372.095 50.16 372.117 52.3147 372.159 54.448C372.202 56.5813 372.245 58.736 372.287 60.912H372.223V65.648C372.181 66.1173 372.138 66.7573 372.095 67.568C372.095 68.336 372.074 69.168 372.031 70.064C372.031 70.9173 372.031 71.792 372.031 72.688C372.031 73.584 372.031 74.3733 372.031 75.056V78.96C372.031 79.472 372.053 79.984 372.095 80.496C372.138 81.008 372.245 81.4987 372.415 81.968C372.586 82.3947 372.799 82.7787 373.055 83.12C373.354 83.4613 373.759 83.696 374.271 83.824C374.527 83.9093 374.89 83.9947 375.359 84.08C375.829 84.1653 376.298 84.2507 376.767 84.336C377.279 84.4213 377.727 84.5067 378.111 84.592C378.538 84.6347 378.837 84.6773 379.007 84.72C379.349 84.8907 379.455 85.0827 379.327 85.296C379.242 85.5093 379.157 85.7653 379.071 86.064C378.858 86.2347 378.602 86.3413 378.303 86.384C378.005 86.4267 377.706 86.448 377.407 86.448C376.042 86.448 374.655 86.3627 373.247 86.192C371.839 86.064 370.431 86 369.023 86C367.53 86 366.058 86.064 364.607 86.192C363.199 86.3627 361.749 86.448 360.255 86.448C359.829 86.448 359.551 86.2987 359.423 86C359.295 85.744 359.231 85.4453 359.231 85.104C359.231 84.9333 359.487 84.784 359.999 84.656C360.554 84.4853 361.173 84.3147 361.855 84.144C362.581 83.9307 363.263 83.696 363.903 83.44C364.586 83.1413 365.055 82.7573 365.311 82.288C365.653 81.5627 365.845 80.7733 365.887 79.92C365.93 79.024 365.951 78.1707 365.951 77.36C365.951 74.8 365.973 72.24 366.015 69.68C366.058 67.12 366.079 64.56 366.079 62C366.079 59.184 366.058 56.3893 366.015 53.616C366.015 50.8 366.015 47.984 366.015 45.168C366.015 44.2293 365.845 43.5467 365.503 43.12C365.162 42.6933 364.735 42.416 364.223 42.288C363.754 42.1173 363.221 42.0533 362.623 42.096C362.026 42.1387 361.471 42.16 360.959 42.16C360.49 42.1173 360.085 42.0107 359.743 41.84C359.402 41.6693 359.231 41.3067 359.231 40.752C359.231 40.4107 359.359 40.176 359.615 40.048C359.871 39.92 360.149 39.8347 360.447 39.792C362.495 39.5787 364.522 39.4507 366.527 39.408C368.575 39.3653 370.623 39.344 372.671 39.344H376.319C378.623 39.344 380.821 39.6213 382.911 40.176C385.002 40.688 386.837 41.4987 388.415 42.608C389.994 43.7173 391.253 45.1467 392.191 46.896C393.13 48.6027 393.599 50.6293 393.599 52.976C393.599 54.9813 393.194 56.816 392.383 58.48C391.573 60.1013 390.485 61.5093 389.119 62.704C387.754 63.8987 386.133 64.8373 384.255 65.52C382.421 66.16 380.479 66.48 378.431 66.48C377.706 66.48 377.258 66.4373 377.087 66.352C376.959 66.224 376.746 66.0533 376.447 65.84C376.362 65.7547 376.255 65.6053 376.127 65.392C376.042 65.136 375.978 64.88 375.935 64.624C375.935 64.368 375.957 64.1547 375.999 63.984C376.085 63.7707 376.234 63.664 376.447 63.664C376.618 63.7067 376.725 63.728 376.767 63.728C378.303 63.6853 379.69 63.408 380.927 62.896C382.165 62.3413 383.231 61.616 384.127 60.72C385.023 59.7813 385.706 58.672 386.175 57.392C386.687 56.0693 386.943 54.64 386.943 53.104ZM390.005 85.296C390.005 84.7413 390.176 84.3787 390.517 84.208C390.858 84.0373 391.264 83.9093 391.733 83.824C392.245 83.7387 392.757 83.6107 393.269 83.44C393.824 83.2693 394.293 82.8853 394.677 82.288C394.805 82.1173 394.997 81.7547 395.253 81.2C395.509 80.6027 395.765 79.984 396.021 79.344C396.32 78.704 396.576 78.0853 396.789 77.488C397.045 76.848 397.237 76.3787 397.365 76.08C398.261 73.776 399.157 71.5147 400.053 69.296C400.992 67.0347 401.93 64.752 402.869 62.448C404.448 58.5653 406.026 54.704 407.605 50.864C409.184 47.024 410.762 43.1627 412.341 39.28C412.426 39.024 412.512 38.832 412.597 38.704C412.725 38.5333 412.96 38.448 413.301 38.448C413.6 38.448 413.834 38.576 414.005 38.832C414.176 39.0453 414.304 39.2587 414.389 39.472C415.37 41.904 416.373 44.3787 417.397 46.896C418.421 49.4133 419.424 51.888 420.405 54.32C422.197 58.9707 424.074 63.5787 426.037 68.144C428 72.7093 430.069 77.2533 432.245 81.776C432.629 82.5867 433.162 83.12 433.845 83.376C434.57 83.632 435.274 83.824 435.957 83.952C436.64 84.08 437.237 84.2293 437.749 84.4C438.261 84.528 438.517 84.8693 438.517 85.424C438.517 85.808 438.282 86.064 437.813 86.192C437.386 86.3627 436.96 86.448 436.533 86.448H435.829C434.805 86.448 433.781 86.384 432.757 86.256C431.733 86.128 430.709 86.064 429.685 86.064C428.192 86.064 426.698 86.128 425.205 86.256C423.754 86.384 422.282 86.448 420.789 86.448C420.405 86.448 420.064 86.32 419.765 86.064C419.466 85.808 419.317 85.488 419.317 85.104C419.317 84.6347 419.616 84.3573 420.213 84.272C420.81 84.1867 421.472 84.1227 422.197 84.08C422.965 84.0373 423.648 83.9307 424.245 83.76C424.842 83.5893 425.141 83.1413 425.141 82.416C425.141 82.288 425.12 82.16 425.077 82.032C425.034 81.8613 424.992 81.712 424.949 81.584C424.821 81.1573 424.586 80.5173 424.245 79.664C423.904 78.768 423.498 77.7227 423.029 76.528C422.56 75.3333 422.026 74.0107 421.429 72.56C420.832 71.1093 420.213 69.616 419.573 68.08C419.36 67.6533 419.168 67.2693 418.997 66.928C418.869 66.5867 418.762 66.3733 418.677 66.288C418.336 65.9467 417.824 65.7547 417.141 65.712C416.458 65.6267 415.754 65.584 415.029 65.584H413.813C413.301 65.584 412.618 65.584 411.765 65.584C410.954 65.5413 410.101 65.52 409.205 65.52C408.352 65.52 407.498 65.5413 406.645 65.584C405.834 65.6267 405.152 65.712 404.597 65.84C403.829 67.632 403.104 69.424 402.421 71.216C401.781 72.9653 401.226 74.5653 400.757 76.016C400.288 77.4667 399.904 78.6827 399.605 79.664C399.349 80.6453 399.221 81.2427 399.221 81.456C399.221 82.352 399.562 82.928 400.245 83.184C400.928 83.44 401.674 83.6107 402.485 83.696C403.338 83.7813 404.106 83.9093 404.789 84.08C405.472 84.208 405.813 84.592 405.813 85.232C405.813 85.5733 405.685 85.8507 405.429 86.064C405.173 86.32 404.874 86.448 404.533 86.448C403.168 86.448 401.781 86.3627 400.373 86.192C398.965 86.064 397.578 86 396.213 86C395.232 86 394.336 86.0427 393.525 86.128C392.757 86.256 391.882 86.32 390.901 86.32C390.602 86.32 390.368 86.2133 390.197 86C390.069 85.7867 390.005 85.552 390.005 85.296ZM412.213 47.6C411.616 48.9653 411.104 50.16 410.677 51.184C410.25 52.1653 409.824 53.1893 409.397 54.256C408.97 55.3227 408.48 56.5173 407.925 57.84C407.37 59.1627 406.666 60.848 405.813 62.896H407.541C408.266 62.896 409.354 62.896 410.805 62.896C412.298 62.8533 414.389 62.832 417.077 62.832C417.077 62.7893 417.141 62.768 417.269 62.768C417.44 62.7253 417.568 62.6827 417.653 62.64C417.098 61.1467 416.522 59.568 415.925 57.904C415.328 56.1973 414.773 54.6187 414.261 53.168C413.749 51.6747 413.301 50.416 412.917 49.392C412.576 48.368 412.341 47.7707 412.213 47.6ZM451.081 86.256C449.673 86.256 448.265 86.2987 446.857 86.384C445.449 86.4693 444.02 86.512 442.569 86.512C442.228 86.512 441.823 86.448 441.353 86.32C440.927 86.192 440.713 85.8933 440.713 85.424C440.713 85.04 440.863 84.7627 441.161 84.592C441.503 84.4213 441.908 84.3147 442.377 84.272C442.847 84.1867 443.337 84.144 443.849 84.144C444.361 84.1013 444.788 84.0587 445.129 84.016C445.855 83.888 446.409 83.632 446.793 83.248C447.22 82.864 447.519 82.3947 447.689 81.84C447.903 81.2853 448.031 80.688 448.073 80.048C448.116 79.408 448.137 78.7893 448.137 78.192C448.223 73.072 448.308 68.0373 448.393 63.088C448.479 58.096 448.521 53.04 448.521 47.92C448.521 47.2373 448.479 46.5973 448.393 46C448.351 45.36 448.18 44.8053 447.881 44.336C447.583 43.8667 447.156 43.4613 446.601 43.12C446.047 42.7787 445.279 42.5227 444.297 42.352C444.041 42.3093 443.679 42.288 443.209 42.288C442.74 42.2453 442.271 42.1813 441.801 42.096C441.332 42.0107 440.927 41.8827 440.585 41.712C440.244 41.5413 440.073 41.2853 440.073 40.944C440.073 40.56 440.287 40.2613 440.713 40.048C441.183 39.8347 441.567 39.728 441.865 39.728C442.804 39.728 443.721 39.7493 444.617 39.792C445.513 39.8347 446.431 39.856 447.369 39.856C448.095 39.856 448.777 39.8347 449.417 39.792C450.1 39.7493 450.804 39.728 451.529 39.728C452.297 39.728 452.873 39.8347 453.257 40.048C453.684 40.2187 454.068 40.496 454.409 40.88C454.793 41.264 455.199 41.7333 455.625 42.288C456.052 42.8427 456.671 43.504 457.481 44.272C459.188 46.32 460.916 48.3893 462.665 50.48C464.457 52.528 466.42 54.8107 468.553 57.328C470.729 59.8027 473.14 62.6187 475.785 65.776C478.473 68.8907 481.588 72.56 485.129 76.784C485.727 76.7413 486.004 76.272 485.961 75.376V67.632C486.004 64.304 486.004 60.976 485.961 57.648C485.961 54.32 485.961 50.992 485.961 47.664C485.961 47.0667 485.94 46.4907 485.897 45.936C485.897 45.3813 485.833 44.8267 485.705 44.272C485.492 43.3333 484.98 42.7573 484.169 42.544C483.401 42.288 482.569 42.16 481.673 42.16C480.82 42.1173 480.031 42.0533 479.305 41.968C478.623 41.8827 478.281 41.4987 478.281 40.816C478.281 40.3893 478.431 40.112 478.729 39.984C479.028 39.8133 479.348 39.728 479.689 39.728C481.055 39.728 482.42 39.7707 483.785 39.856C485.151 39.9413 486.516 39.984 487.881 39.984C488.991 39.984 490.1 39.9627 491.209 39.92C492.361 39.8347 493.492 39.792 494.601 39.792C495.54 39.792 496.009 40.1547 496.009 40.88C496.009 41.392 495.732 41.7333 495.177 41.904C494.665 42.032 494.068 42.1387 493.385 42.224C492.703 42.2667 492.02 42.352 491.337 42.48C490.655 42.5653 490.164 42.8 489.865 43.184C489.609 43.5253 489.396 44.1227 489.225 44.976C489.055 45.8293 488.927 46.7467 488.841 47.728C488.799 48.6667 488.756 49.584 488.713 50.48C488.713 51.376 488.713 52.0373 488.713 52.464V65.712C488.713 68.1867 488.692 70.9813 488.649 74.096C488.649 77.2107 488.649 80.88 488.649 85.104C488.649 85.8293 488.607 86.4907 488.521 87.088C488.479 87.728 488.18 88.0907 487.625 88.176C487.412 88.2187 487.199 88.1547 486.985 87.984C486.772 87.856 486.559 87.6853 486.345 87.472C486.175 87.2587 485.983 87.024 485.769 86.768C485.599 86.5547 485.449 86.3627 485.321 86.192C484.084 84.7413 482.847 83.2907 481.609 81.84C480.415 80.3893 479.22 78.9173 478.025 77.424C477.983 77.3813 477.897 77.296 477.769 77.168C477.684 77.04 477.428 76.7413 477.001 76.272C476.575 75.76 475.913 74.992 475.017 73.968C474.121 72.9013 472.863 71.4293 471.241 69.552C469.62 67.6747 467.572 65.3067 465.097 62.448C462.665 59.5893 459.657 56.0693 456.073 51.888C455.348 51.0347 454.601 50.1173 453.833 49.136C453.108 48.112 452.276 47.216 451.337 46.448C451.209 47.1733 451.145 47.8987 451.145 48.624C451.145 50.928 451.167 53.104 451.209 55.152C451.252 57.1573 451.273 59.248 451.273 61.424C451.316 63.6 451.359 65.968 451.401 68.528C451.444 71.0453 451.465 73.968 451.465 77.296C451.465 79.2587 451.593 80.688 451.849 81.584C452.105 82.48 452.489 83.0987 453.001 83.44C453.556 83.7387 454.239 83.9093 455.049 83.952C455.903 83.9947 456.927 84.144 458.121 84.4C458.463 84.4853 458.783 84.656 459.081 84.912C459.423 85.1253 459.593 85.4453 459.593 85.872C459.593 86.128 459.465 86.2987 459.209 86.384C458.953 86.4693 458.719 86.512 458.505 86.512C457.268 86.512 456.031 86.4693 454.793 86.384C453.556 86.2987 452.319 86.256 451.081 86.256ZM518.955 88.304C518.656 88.304 518.464 88.0267 518.379 87.472C518.294 86.96 518.251 86.3413 518.251 85.616C518.251 84.8907 518.272 84.144 518.315 83.376C518.4 82.608 518.443 81.9893 518.443 81.52C518.443 80.4107 518.443 79.408 518.443 78.512C518.486 77.616 518.55 76.6133 518.635 75.504C518.678 75.12 518.763 74.864 518.891 74.736C519.062 74.608 519.232 74.544 519.403 74.544C519.574 74.544 519.723 74.5653 519.851 74.608C520.022 74.6507 520.171 74.672 520.299 74.672C520.598 74.672 520.832 74.864 521.003 75.248C521.174 75.5893 521.323 76.0373 521.451 76.592C521.579 77.104 521.707 77.6587 521.835 78.256C522.006 78.8533 522.198 79.3653 522.411 79.792C523.179 81.456 524.374 82.7573 525.995 83.696C527.616 84.592 529.302 85.04 531.051 85.04C532.331 85.04 533.504 84.848 534.571 84.464C535.68 84.0373 536.64 83.44 537.451 82.672C538.262 81.904 538.88 80.9867 539.307 79.92C539.776 78.8533 540.011 77.6373 540.011 76.272C540.011 74.2667 539.456 72.5813 538.347 71.216C537.28 69.8507 535.936 68.6347 534.315 67.568C532.694 66.5013 530.923 65.4987 529.003 64.56C527.126 63.6213 525.376 62.576 523.755 61.424C522.134 60.2293 520.768 58.864 519.659 57.328C518.592 55.7493 518.059 53.808 518.059 51.504C518.059 49.456 518.422 47.6427 519.147 46.064C519.915 44.4427 520.939 43.0987 522.219 42.032C523.499 40.9227 524.992 40.0907 526.699 39.536C528.448 38.9387 530.283 38.64 532.203 38.64C533.099 38.64 534.102 38.8747 535.211 39.344C536.32 39.8133 537.259 40.2827 538.027 40.752C538.496 41.008 538.838 41.0293 539.051 40.816C539.307 40.56 539.542 40.2187 539.755 39.792C539.968 39.3653 540.224 38.96 540.523 38.576C540.864 38.192 541.355 38 541.995 38C542.294 38 542.486 38.2133 542.571 38.64C542.656 39.0667 542.699 39.5787 542.699 40.176C542.699 40.7733 542.656 41.392 542.571 42.032C542.528 42.672 542.507 43.2267 542.507 43.696C542.55 45.9147 542.486 48.1333 542.315 50.352C542.23 50.736 542.123 50.992 541.995 51.12C541.867 51.248 541.718 51.312 541.547 51.312C541.376 51.312 541.206 51.2907 541.035 51.248C540.864 51.2053 540.715 51.184 540.587 51.184C540.331 51.184 540.118 50.992 539.947 50.608C539.776 50.224 539.627 49.776 539.499 49.264C539.371 48.7093 539.243 48.1547 539.115 47.6C538.987 47.0027 538.795 46.4907 538.539 46.064C537.856 44.4427 536.854 43.184 535.531 42.288C534.208 41.392 532.864 40.944 531.499 40.944C530.39 40.944 529.323 41.1147 528.299 41.456C527.318 41.7973 526.443 42.288 525.675 42.928C524.95 43.568 524.374 44.3573 523.947 45.296C523.52 46.2347 523.307 47.28 523.307 48.432C523.307 50.224 523.883 51.8027 525.035 53.168C526.23 54.4907 527.68 55.6853 529.387 56.752C531.094 57.776 532.886 58.736 534.763 59.632C536.683 60.528 538.368 61.4453 539.819 62.384C541.611 63.5787 542.998 65.136 543.979 67.056C545.003 68.976 545.536 71.024 545.579 73.2C545.579 75.5467 545.195 77.616 544.427 79.408C543.702 81.1573 542.656 82.6293 541.291 83.824C539.968 85.0187 538.368 85.9147 536.491 86.512C534.656 87.152 532.63 87.4933 530.411 87.536C529.6 87.536 528.832 87.4293 528.107 87.216C527.424 87.0027 526.763 86.768 526.123 86.512C525.526 86.2987 524.95 86.0853 524.395 85.872C523.883 85.6587 523.392 85.552 522.923 85.552C522.411 85.552 522.027 85.7013 521.771 86C521.558 86.256 521.344 86.5547 521.131 86.896C520.918 87.28 520.662 87.6 520.363 87.856C520.064 88.1547 519.595 88.304 518.955 88.304ZM581.519 49.648C581.092 49.648 580.751 49.392 580.495 48.88C580.239 48.3253 579.983 47.6853 579.727 46.96C579.471 46.2347 579.172 45.5307 578.831 44.848C578.532 44.1227 578.084 43.5893 577.487 43.248C577.103 43.0347 576.548 42.864 575.823 42.736C575.098 42.5653 574.287 42.4373 573.391 42.352C572.495 42.2667 571.556 42.224 570.575 42.224C569.636 42.1813 568.74 42.16 567.887 42.16H565.071C564.09 42.16 563.343 42.3733 562.831 42.8C562.319 43.184 561.935 43.696 561.679 44.336C561.466 44.976 561.338 45.7013 561.295 46.512C561.252 47.28 561.231 48.0267 561.231 48.752C561.231 50.2027 561.231 51.6533 561.231 53.104C561.274 54.5547 561.295 56.0053 561.295 57.456V58.928C561.295 59.4827 561.338 59.9307 561.423 60.272C561.594 60.4853 561.85 60.6347 562.191 60.72C562.532 60.8053 562.895 60.8693 563.279 60.912C563.706 60.912 564.111 60.912 564.495 60.912C564.879 60.8693 565.199 60.848 565.455 60.848C566.607 60.848 567.78 60.848 568.975 60.848C570.17 60.8053 571.343 60.6987 572.495 60.528C573.775 60.3147 574.692 59.7813 575.247 58.928C575.802 58.0747 576.122 57.0293 576.207 55.792C576.335 55.536 576.463 55.3013 576.591 55.088C576.762 54.832 577.018 54.704 577.359 54.704C577.828 54.704 578.084 54.9173 578.127 55.344C578.17 55.7707 578.191 56.2187 578.191 56.688C578.191 57.584 578.17 58.48 578.127 59.376C578.084 60.272 578.063 61.168 578.063 62.064C578.063 62.96 578.084 63.856 578.127 64.752C578.17 65.6053 578.191 66.48 578.191 67.376C578.191 67.5893 578.191 67.8667 578.191 68.208C578.234 68.5067 578.234 68.8053 578.191 69.104C578.148 69.4027 578.042 69.6587 577.871 69.872C577.743 70.0427 577.53 70.128 577.231 70.128C576.932 70.128 576.698 69.936 576.527 69.552C576.356 69.168 576.207 68.7413 576.079 68.272C575.994 67.76 575.908 67.2693 575.823 66.8C575.738 66.288 575.631 65.9253 575.503 65.712C575.332 64.9013 574.884 64.304 574.159 63.92C573.476 63.4933 572.644 63.216 571.663 63.088C570.724 62.9173 569.722 62.8533 568.655 62.896C567.631 62.896 566.714 62.896 565.903 62.896C565.69 62.896 565.412 62.9173 565.071 62.96C564.73 62.96 564.367 62.9813 563.983 63.024C563.599 63.024 563.215 63.0453 562.831 63.088C562.49 63.1307 562.234 63.1733 562.063 63.216C561.807 63.2587 561.636 63.4507 561.551 63.792C561.466 64.1333 561.402 64.5173 561.359 64.944C561.316 65.3707 561.295 65.7973 561.295 66.224C561.338 66.6507 561.359 66.9493 561.359 67.12V77.232C561.359 77.7013 561.359 78.2347 561.359 78.832C561.402 79.3867 561.466 79.9627 561.551 80.56C561.679 81.1147 561.85 81.648 562.063 82.16C562.319 82.6293 562.682 82.992 563.151 83.248C563.492 83.4187 564.09 83.568 564.943 83.696C565.796 83.7813 566.692 83.8453 567.631 83.888C568.612 83.9307 569.551 83.9733 570.447 84.016C571.343 84.016 571.983 84.016 572.367 84.016H574.351C574.906 84.016 575.524 83.9947 576.207 83.952C576.89 83.9093 577.53 83.8667 578.127 83.824C578.767 83.7387 579.343 83.632 579.855 83.504C580.41 83.376 580.858 83.2053 581.199 82.992C581.796 82.608 582.351 82.0107 582.863 81.2C583.375 80.3893 583.844 79.5787 584.271 78.768C584.74 77.9573 585.167 77.2533 585.551 76.656C585.978 76.016 586.362 75.696 586.703 75.696C587.215 75.696 587.492 75.8667 587.535 76.208C587.62 76.5493 587.578 76.8907 587.407 77.232C587.407 77.2747 587.364 77.488 587.279 77.872C587.194 78.256 587.13 78.4907 587.087 78.576C587.044 78.704 586.938 79.152 586.767 79.92C586.596 80.6453 586.404 81.4347 586.191 82.288C586.02 83.0987 585.85 83.8453 585.679 84.528C585.551 85.2107 585.487 85.552 585.487 85.552C585.146 86.064 584.612 86.32 583.887 86.32H553.679C553.082 86.32 552.463 86.3413 551.823 86.384C551.226 86.4267 550.607 86.448 549.967 86.448C549.498 86.448 549.028 86.4267 548.559 86.384C548.09 86.3413 547.855 86 547.855 85.36C547.855 85.0187 548.111 84.7627 548.623 84.592C549.178 84.4213 549.818 84.2507 550.543 84.08C551.311 83.9093 552.058 83.696 552.783 83.44C553.508 83.1413 554.063 82.7147 554.447 82.16C554.788 81.648 555.023 80.816 555.151 79.664C555.279 78.512 555.343 77.2533 555.343 75.888C555.343 74.48 555.322 73.072 555.279 71.664C555.236 70.2133 555.215 68.9547 555.215 67.888C555.215 64.432 555.194 60.9973 555.151 57.584C555.108 54.1707 555.087 50.736 555.087 47.28V46.128C555.087 45.9147 555.087 45.7227 555.087 45.552C555.087 45.3813 555.066 45.1893 555.023 44.976C554.938 43.8667 554.532 43.1413 553.807 42.8C553.124 42.416 552.356 42.1813 551.503 42.096C550.692 41.968 549.946 41.8613 549.263 41.776C548.623 41.648 548.303 41.3067 548.303 40.752C548.303 40.368 548.474 40.112 548.815 39.984C549.199 39.8133 549.626 39.7067 550.095 39.664C550.607 39.5787 551.14 39.5573 551.695 39.6C552.25 39.6 552.719 39.6 553.103 39.6C554.554 39.6 556.004 39.6427 557.455 39.728C558.906 39.7707 560.378 39.792 561.871 39.792C564.815 39.792 567.695 39.7707 570.511 39.728C573.37 39.6427 576.271 39.6 579.215 39.6H579.919C580.388 39.6 580.858 39.6427 581.327 39.728C581.796 39.8133 582.074 40.0267 582.159 40.368C582.33 41.2213 582.415 42.0107 582.415 42.736C582.415 43.12 582.394 43.5893 582.351 44.144C582.351 44.656 582.351 45.296 582.351 46.064C582.351 46.9173 582.287 47.728 582.159 48.496C582.074 49.2213 581.86 49.6053 581.519 49.648ZM589.192 85.296C589.192 84.7413 589.363 84.3787 589.704 84.208C590.046 84.0373 590.451 83.9093 590.92 83.824C591.432 83.7387 591.944 83.6107 592.456 83.44C593.011 83.2693 593.48 82.8853 593.864 82.288C593.992 82.1173 594.184 81.7547 594.44 81.2C594.696 80.6027 594.952 79.984 595.208 79.344C595.507 78.704 595.763 78.0853 595.976 77.488C596.232 76.848 596.424 76.3787 596.552 76.08C597.448 73.776 598.344 71.5147 599.24 69.296C600.179 67.0347 601.118 64.752 602.056 62.448C603.635 58.5653 605.214 54.704 606.792 50.864C608.371 47.024 609.95 43.1627 611.528 39.28C611.614 39.024 611.699 38.832 611.784 38.704C611.912 38.5333 612.147 38.448 612.488 38.448C612.787 38.448 613.022 38.576 613.192 38.832C613.363 39.0453 613.491 39.2587 613.576 39.472C614.558 41.904 615.56 44.3787 616.584 46.896C617.608 49.4133 618.611 51.888 619.592 54.32C621.384 58.9707 623.262 63.5787 625.224 68.144C627.187 72.7093 629.256 77.2533 631.432 81.776C631.816 82.5867 632.35 83.12 633.032 83.376C633.758 83.632 634.462 83.824 635.144 83.952C635.827 84.08 636.424 84.2293 636.936 84.4C637.448 84.528 637.704 84.8693 637.704 85.424C637.704 85.808 637.47 86.064 637 86.192C636.574 86.3627 636.147 86.448 635.72 86.448H635.016C633.992 86.448 632.968 86.384 631.944 86.256C630.92 86.128 629.896 86.064 628.872 86.064C627.379 86.064 625.886 86.128 624.392 86.256C622.942 86.384 621.47 86.448 619.976 86.448C619.592 86.448 619.251 86.32 618.952 86.064C618.654 85.808 618.504 85.488 618.504 85.104C618.504 84.6347 618.803 84.3573 619.4 84.272C619.998 84.1867 620.659 84.1227 621.384 84.08C622.152 84.0373 622.835 83.9307 623.432 83.76C624.03 83.5893 624.328 83.1413 624.328 82.416C624.328 82.288 624.307 82.16 624.264 82.032C624.222 81.8613 624.179 81.712 624.136 81.584C624.008 81.1573 623.774 80.5173 623.432 79.664C623.091 78.768 622.686 77.7227 622.216 76.528C621.747 75.3333 621.214 74.0107 620.616 72.56C620.019 71.1093 619.4 69.616 618.76 68.08C618.547 67.6533 618.355 67.2693 618.184 66.928C618.056 66.5867 617.95 66.3733 617.864 66.288C617.523 65.9467 617.011 65.7547 616.328 65.712C615.646 65.6267 614.942 65.584 614.216 65.584H613C612.488 65.584 611.806 65.584 610.952 65.584C610.142 65.5413 609.288 65.52 608.392 65.52C607.539 65.52 606.686 65.5413 605.832 65.584C605.022 65.6267 604.339 65.712 603.784 65.84C603.016 67.632 602.291 69.424 601.608 71.216C600.968 72.9653 600.414 74.5653 599.944 76.016C599.475 77.4667 599.091 78.6827 598.792 79.664C598.536 80.6453 598.408 81.2427 598.408 81.456C598.408 82.352 598.75 82.928 599.432 83.184C600.115 83.44 600.862 83.6107 601.672 83.696C602.526 83.7813 603.294 83.9093 603.976 84.08C604.659 84.208 605 84.592 605 85.232C605 85.5733 604.872 85.8507 604.616 86.064C604.36 86.32 604.062 86.448 603.72 86.448C602.355 86.448 600.968 86.3627 599.56 86.192C598.152 86.064 596.766 86 595.4 86C594.419 86 593.523 86.0427 592.712 86.128C591.944 86.256 591.07 86.32 590.088 86.32C589.79 86.32 589.555 86.2133 589.384 86C589.256 85.7867 589.192 85.552 589.192 85.296ZM611.4 47.6C610.803 48.9653 610.291 50.16 609.864 51.184C609.438 52.1653 609.011 53.1893 608.584 54.256C608.158 55.3227 607.667 56.5173 607.112 57.84C606.558 59.1627 605.854 60.848 605 62.896H606.728C607.454 62.896 608.542 62.896 609.992 62.896C611.486 62.8533 613.576 62.832 616.264 62.832C616.264 62.7893 616.328 62.768 616.456 62.768C616.627 62.7253 616.755 62.6827 616.84 62.64C616.286 61.1467 615.71 59.568 615.112 57.904C614.515 56.1973 613.96 54.6187 613.448 53.168C612.936 51.6747 612.488 50.416 612.104 49.392C611.763 48.368 611.528 47.7707 611.4 47.6ZM668.573 52.016C668.573 50.3093 668.296 48.816 667.741 47.536C667.186 46.256 666.418 45.1893 665.437 44.336C664.498 43.44 663.368 42.7787 662.045 42.352C660.722 41.8827 659.272 41.648 657.693 41.648C656.2 41.648 655.218 41.9253 654.749 42.48C654.28 42.992 654.045 43.76 654.045 44.784V46.96C654.045 48.6667 654.024 50.5867 653.981 52.72C653.938 54.8533 653.917 56.7733 653.917 58.48C653.917 59.12 653.896 59.6747 653.853 60.144C653.853 60.5707 653.896 60.9333 653.981 61.232C654.109 61.5307 654.344 61.744 654.685 61.872C655.069 62 655.645 62.064 656.413 62.064C658.12 62.064 659.72 61.936 661.213 61.68C662.706 61.3813 663.986 60.8693 665.053 60.144C666.162 59.376 667.016 58.352 667.613 57.072C668.253 55.7493 668.573 54.064 668.573 52.016ZM665.565 63.536C666.418 63.8773 667.229 64.6453 667.997 65.84C668.808 66.992 669.597 68.3787 670.365 70C671.176 71.6213 672.029 73.3493 672.925 75.184C673.821 76.976 674.824 78.6827 675.933 80.304C677.042 81.9253 678.28 83.3547 679.645 84.592C681.01 85.7867 682.589 86.576 684.381 86.96C684.85 87.1733 685.32 87.3227 685.789 87.408C686.301 87.536 686.557 87.792 686.557 88.176C686.557 88.432 686.365 88.752 685.981 89.136C685.512 89.3067 684.744 89.392 683.677 89.392C683.25 89.392 682.824 89.3707 682.397 89.328C681.97 89.2853 681.608 89.2427 681.309 89.2C677.682 88.56 674.632 87.088 672.157 84.784C669.725 82.48 667.869 79.664 666.589 76.336C665.864 74.9707 665.181 73.5627 664.541 72.112C663.944 70.6613 663.24 69.36 662.429 68.208C661.661 67.0133 660.744 66.032 659.677 65.264C658.653 64.496 657.373 64.112 655.837 64.112C654.984 64.112 654.45 64.2827 654.237 64.624C654.066 64.9653 653.981 65.648 653.981 66.672V79.856C653.981 80.9653 654.109 81.7973 654.365 82.352C654.664 82.9067 655.048 83.312 655.517 83.568C656.029 83.824 656.626 83.9947 657.309 84.08C657.992 84.1653 658.76 84.2933 659.613 84.464C659.698 84.5067 659.869 84.528 660.125 84.528C660.466 84.528 660.786 84.5707 661.085 84.656C661.384 84.7413 661.533 84.9547 661.533 85.296C661.533 85.8933 661.32 86.256 660.893 86.384C660.466 86.512 659.826 86.576 658.973 86.576C657.437 86.576 655.901 86.4907 654.365 86.32C652.829 86.192 651.314 86.128 649.821 86.128C648.498 86.128 647.176 86.192 645.853 86.32C644.573 86.448 643.272 86.512 641.949 86.512C641.394 86.512 641.032 86.448 640.861 86.32C640.69 86.2347 640.605 85.8933 640.605 85.296C640.605 84.9973 640.776 84.8053 641.117 84.72C641.458 84.592 641.885 84.4853 642.397 84.4C642.952 84.3147 643.528 84.2293 644.125 84.144C644.722 84.016 645.277 83.8027 645.789 83.504C646.344 83.2053 646.792 82.8 647.133 82.288C647.474 81.776 647.645 81.072 647.645 80.176V66.992C647.645 63.3653 647.666 59.76 647.709 56.176C647.794 52.592 647.837 48.9867 647.837 45.36C647.837 44.5067 647.666 43.8453 647.325 43.376C646.984 42.9067 646.536 42.5867 645.981 42.416C645.469 42.2027 644.914 42.0747 644.317 42.032C643.72 41.9893 643.144 41.9467 642.589 41.904C642.077 41.8613 641.65 41.776 641.309 41.648C640.968 41.52 640.797 41.264 640.797 40.88C640.797 40.2827 641.01 39.9413 641.437 39.856C641.906 39.728 642.376 39.664 642.845 39.664C643.314 39.664 643.784 39.6853 644.253 39.728C644.765 39.7707 645.256 39.792 645.725 39.792H651.293C652.914 39.792 654.536 39.7707 656.157 39.728C657.821 39.6427 659.464 39.6 661.085 39.6C662.493 39.6 664.008 39.792 665.629 40.176C667.25 40.5173 668.765 41.1787 670.173 42.16C671.581 43.0987 672.754 44.3787 673.693 46C674.632 47.6213 675.101 49.6907 675.101 52.208C675.101 53.5733 674.802 54.8533 674.205 56.048C673.65 57.2 672.904 58.2453 671.965 59.184C671.069 60.1227 670.045 60.9547 668.893 61.68C667.784 62.4053 666.674 63.024 665.565 63.536ZM722.114 37.488C722.413 37.488 722.605 37.7013 722.69 38.128C722.775 38.5547 722.818 39.0667 722.818 39.664C722.818 40.2613 722.775 40.88 722.69 41.52C722.647 42.16 722.626 42.7147 722.626 43.184C722.626 44.2933 722.605 45.4027 722.562 46.512C722.519 47.6213 722.455 48.7307 722.37 49.84C722.285 50.224 722.178 50.48 722.05 50.608C721.922 50.736 721.773 50.8 721.602 50.8C721.431 50.8 721.261 50.7787 721.09 50.736C720.962 50.6933 720.834 50.672 720.706 50.672C720.45 50.672 720.237 50.48 720.066 50.096C719.895 49.712 719.746 49.264 719.618 48.752C719.49 48.1973 719.341 47.6427 719.17 47.088C719.042 46.4907 718.85 45.9787 718.594 45.552C717.229 44.0587 715.543 42.928 713.538 42.16C711.575 41.3493 709.549 40.944 707.458 40.944C704.514 40.944 701.997 41.52 699.906 42.672C697.815 43.824 696.109 45.36 694.786 47.28C693.463 49.2 692.482 51.44 691.842 54C691.245 56.5173 690.946 59.1413 690.946 61.872C690.946 64.816 691.245 67.6747 691.842 70.448C692.482 73.2213 693.485 75.696 694.85 77.872C696.215 80.0053 697.986 81.7333 700.162 83.056C702.338 84.3787 704.983 85.04 708.098 85.04C709.122 85.04 710.189 84.9333 711.298 84.72C712.407 84.464 713.474 84.1227 714.498 83.696C715.565 83.2267 716.546 82.672 717.442 82.032C718.381 81.392 719.191 80.6453 719.874 79.792C720.087 79.4933 720.322 79.088 720.578 78.576C720.877 78.064 721.175 77.552 721.474 77.04C721.773 76.528 722.05 76.08 722.306 75.696C722.562 75.312 722.797 75.12 723.01 75.12C723.479 75.12 723.799 75.2053 723.97 75.376C724.183 75.5467 724.29 75.8667 724.29 76.336C724.29 76.6773 724.226 77.232 724.098 78C724.013 78.768 723.885 79.5787 723.714 80.432C723.543 81.2427 723.351 81.9893 723.138 82.672C722.925 83.3547 722.711 83.8027 722.498 84.016C721.773 84.656 720.813 85.2107 719.618 85.68C718.423 86.1067 717.143 86.4693 715.778 86.768C714.413 87.0667 713.005 87.28 711.554 87.408C710.146 87.536 708.866 87.6 707.714 87.6C703.959 87.6 700.567 86.9173 697.538 85.552C694.551 84.144 691.991 82.2667 689.858 79.92C687.767 77.5733 686.146 74.8427 684.994 71.728C683.885 68.6133 683.33 65.3493 683.33 61.936C683.33 58.224 683.906 54.9387 685.058 52.08C686.253 49.1787 687.874 46.7467 689.922 44.784C692.013 42.7787 694.509 41.264 697.41 40.24C700.311 39.216 703.49 38.704 706.946 38.704C708.397 38.704 709.826 38.7893 711.234 38.96C712.685 39.1307 714.135 39.3653 715.586 39.664C715.927 39.7493 716.311 39.8773 716.738 40.048C717.207 40.176 717.677 40.304 718.146 40.432C718.445 40.688 718.701 40.688 718.914 40.432C719.127 40.1333 719.362 39.7707 719.618 39.344C719.874 38.9173 720.194 38.512 720.578 38.128C720.962 37.7013 721.474 37.488 722.114 37.488ZM779.11 41.328C778.982 41.584 778.641 41.7547 778.086 41.84C777.574 41.8827 776.977 41.9253 776.294 41.968C775.654 42.0107 775.014 42.096 774.374 42.224C773.777 42.352 773.329 42.608 773.03 42.992C772.689 43.376 772.454 43.888 772.326 44.528C772.241 45.168 772.198 45.8507 772.198 46.576V47.664C772.198 53.04 772.177 58.3733 772.134 63.664C772.091 68.912 772.07 74.224 772.07 79.6C772.07 80.6667 772.241 81.4987 772.582 82.096C772.923 82.6507 773.35 83.0773 773.862 83.376C774.374 83.632 774.929 83.8027 775.526 83.888C776.123 83.9733 776.678 84.0587 777.19 84.144C777.702 84.2293 778.129 84.3573 778.47 84.528C778.811 84.6987 778.982 85.0187 778.982 85.488C778.982 86.128 778.747 86.4693 778.278 86.512C777.851 86.5547 777.382 86.576 776.87 86.576C775.462 86.576 774.033 86.512 772.582 86.384C771.174 86.256 769.766 86.192 768.358 86.192C766.993 86.192 765.606 86.256 764.198 86.384C762.833 86.512 761.467 86.576 760.102 86.576C759.206 86.576 758.758 86.2347 758.758 85.552C758.758 84.912 758.971 84.528 759.398 84.4C759.867 84.272 760.422 84.208 761.062 84.208C761.702 84.208 762.363 84.1653 763.046 84.08C763.771 83.952 764.369 83.5893 764.838 82.992C765.307 82.3947 765.606 81.648 765.734 80.752C765.862 79.856 765.926 79.0453 765.926 78.32V66.672C765.926 66.032 765.798 65.584 765.542 65.328C765.286 65.0293 764.966 64.8373 764.582 64.752C764.198 64.6667 763.771 64.6453 763.302 64.688C762.875 64.688 762.47 64.688 762.086 64.688H746.47C745.958 64.688 745.403 64.688 744.806 64.688C744.209 64.6453 743.654 64.688 743.142 64.816C742.673 64.9013 742.267 65.0933 741.926 65.392C741.627 65.648 741.478 66.096 741.478 66.736V79.28C741.478 80.1333 741.478 80.6453 741.478 80.816C741.521 80.944 741.542 81.072 741.542 81.2C741.67 82.352 742.097 83.12 742.822 83.504C743.547 83.8453 744.315 84.0587 745.126 84.144C745.937 84.2293 746.662 84.3147 747.302 84.4C747.985 84.4427 748.326 84.7627 748.326 85.36C748.326 86 748.091 86.3413 747.622 86.384C747.195 86.4693 746.705 86.512 746.15 86.512C745.041 86.512 743.91 86.448 742.758 86.32C741.606 86.2347 740.475 86.192 739.366 86.192H736.87C735.718 86.192 734.587 86.256 733.478 86.384C732.369 86.512 731.259 86.576 730.15 86.576C729.809 86.576 729.403 86.5547 728.934 86.512C728.465 86.4693 728.23 86.2133 728.23 85.744C728.23 85.104 728.55 84.72 729.19 84.592C729.873 84.4213 730.619 84.272 731.43 84.144C732.241 84.016 733.009 83.76 733.734 83.376C734.502 82.9493 734.971 82.16 735.142 81.008C735.27 80.0693 735.334 79.1093 735.334 78.128C735.377 77.1467 735.398 76.1867 735.398 75.248V47.152C735.398 45.872 735.227 44.8907 734.886 44.208C734.587 43.5253 734.182 43.0347 733.67 42.736C733.158 42.3947 732.625 42.1813 732.07 42.096C731.515 42.0107 730.982 41.9467 730.47 41.904C729.958 41.8187 729.531 41.712 729.19 41.584C728.891 41.4133 728.742 41.072 728.742 40.56C728.742 40.176 728.934 39.9413 729.318 39.856C729.745 39.728 730.171 39.664 730.598 39.664H731.302C732.411 39.664 733.499 39.7067 734.566 39.792C735.633 39.8347 736.721 39.856 737.83 39.856C739.366 39.856 740.902 39.8347 742.438 39.792C744.017 39.7493 745.574 39.728 747.11 39.728C747.366 39.728 747.622 39.792 747.878 39.92C748.134 40.048 748.262 40.2613 748.262 40.56C748.262 41.4133 747.921 41.904 747.238 42.032C746.555 42.1173 745.787 42.16 744.934 42.16C744.507 42.16 744.102 42.2027 743.718 42.288C743.334 42.3733 742.971 42.544 742.63 42.8C742.331 43.0133 742.075 43.3547 741.862 43.824C741.691 44.2507 741.606 44.8267 741.606 45.552C741.606 46.1493 741.585 46.7467 741.542 47.344C741.542 47.9413 741.542 48.5387 741.542 49.136V60.016C741.542 61.2107 742.097 61.808 743.206 61.808C744.998 61.808 746.577 61.8293 747.942 61.872C749.35 61.872 750.715 61.872 752.038 61.872C753.361 61.872 754.705 61.8933 756.07 61.936C757.478 61.936 759.078 61.936 760.87 61.936C761.297 61.936 761.766 61.9573 762.278 62C762.833 62 763.366 62 763.878 62C764.39 61.9573 764.817 61.8933 765.158 61.808C765.542 61.68 765.777 61.488 765.862 61.232C765.905 61.104 765.926 60.72 765.926 60.08C765.969 59.3973 765.99 58.5867 765.99 57.648C765.99 56.6667 765.99 55.6427 765.99 54.576C766.033 53.4667 766.054 52.4213 766.054 51.44V47.28C766.054 46.9813 766.033 46.64 765.99 46.256C765.99 45.8293 765.947 45.424 765.862 45.04C765.819 44.6133 765.734 44.2293 765.606 43.888C765.478 43.504 765.286 43.2053 765.03 42.992C764.774 42.8213 764.454 42.6933 764.07 42.608C763.686 42.48 763.281 42.3947 762.854 42.352C762.427 42.3093 762.043 42.2667 761.702 42.224C761.361 42.1387 761.126 42.032 760.998 41.904C760.571 41.904 760.209 41.8613 759.91 41.776C759.654 41.6907 759.526 41.392 759.526 40.88C759.526 40.5387 759.611 40.304 759.782 40.176C759.953 40.0053 760.187 39.8987 760.486 39.856C760.785 39.7707 761.083 39.7493 761.382 39.792C761.723 39.792 762.065 39.792 762.406 39.792C763.515 39.792 764.603 39.856 765.67 39.984C766.737 40.0693 767.803 40.112 768.87 40.112C770.193 40.112 771.515 40.0693 772.838 39.984C774.161 39.8987 775.483 39.856 776.806 39.856C777.787 39.856 778.406 39.9413 778.662 40.112C778.961 40.2827 779.11 40.688 779.11 41.328Z" fill="black"/>
</svg>
